<svg xmlns="http://www.w3.org/2000/svg" width="38.334" height="37.585" viewBox="0 0 38.334 37.585">
  <g id="그룹_77" data-name="그룹 77" transform="translate(-1204.075 -866.974)">
    <line id="선_8" data-name="선 8" y1="2.485" x2="9.938" transform="translate(1206.5 880.176)" fill="none" stroke="#fff" stroke-linecap="round" stroke-width="4"/>
    <line id="선_9" data-name="선 9" x2="9.938" y2="2.485" transform="translate(1206.5 889.286)" fill="none" stroke="#fff" stroke-linecap="round" stroke-width="4"/>
    <path id="패스_19" data-name="패스 19" d="M1217.774,1664.776a6.785,6.785,0,0,0,1.65,7.117,9.919,9.919,0,0,0,6.97,2.843,10.709,10.709,0,0,0,6.6-2.843,8.464,8.464,0,0,0,2.017-5.135" transform="translate(-1.87 -772.177)" fill="none" stroke="#fff" stroke-linecap="round" stroke-width="4"/>
    <path id="패스_20" data-name="패스 20" d="M1217.774,1674.736a6.785,6.785,0,0,1,1.65-7.117,9.919,9.919,0,0,1,6.97-2.843,10.708,10.708,0,0,1,6.6,2.843,8.464,8.464,0,0,1,2.017,5.135" transform="translate(-1.87 -795.802)" fill="none" stroke="#fff" stroke-linecap="round" stroke-width="4"/>
    <path id="패스_21" data-name="패스 21" d="M.39,9.96A6.784,6.784,0,0,1,2.04,2.843,9.919,9.919,0,0,1,9.01,0a10.708,10.708,0,0,1,6.6,2.843A8.463,8.463,0,0,1,17.63,7.978" transform="translate(1240.166 877.831) rotate(97)" fill="none" stroke="#fff" stroke-linecap="round" stroke-width="4"/>
  </g>
</svg>
