<svg xmlns="http://www.w3.org/2000/svg" width="322.778" height="111.129" viewBox="0 0 322.778 111.129">
  <g id="그룹_10" data-name="그룹 10" transform="translate(-138.166 -325.164)">
    <g id="그룹_8" data-name="그룹 8" transform="translate(-185.309 234.444)">
      <g id="그룹_4" data-name="그룹 4" transform="matrix(0.899, -0.438, 0.438, 0.899, 319.692, 110.846)">
        <g id="그룹_3" data-name="그룹 3" transform="translate(8.124 6.949)">
          <g id="그룹_2" data-name="그룹 2" transform="translate(0 0)">
            <path id="패스_3" data-name="패스 3" d="M0,9.672,4.713,31.54a20.9,20.9,0,0,0,11.8,4.119c6.652,0,12.143-4.119,12.143-4.119L32.889,9.672,22.242,15.729,16.509,0,11.341,15.729Z" transform="translate(0 0)" fill="#b4846c" stroke="#fff" stroke-width="5"/>
          </g>
        </g>
        <g id="타원_8" data-name="타원 8" transform="translate(18.082 0)" fill="#a7caff" stroke="#fff" stroke-width="5">
          <ellipse cx="6.78" cy="6.78" rx="6.78" ry="6.78" stroke="none"/>
          <ellipse cx="6.78" cy="6.78" rx="4.28" ry="4.28" fill="none"/>
        </g>
        <g id="타원_9" data-name="타원 9" transform="translate(34.38 7.949)" fill="#a7caff" stroke="#fff" stroke-width="5">
          <ellipse cx="6.78" cy="6.78" rx="6.78" ry="6.78" stroke="none"/>
          <ellipse cx="6.78" cy="6.78" rx="4.28" ry="4.28" fill="none"/>
        </g>
        <g id="타원_10" data-name="타원 10" transform="translate(0 9.331)" fill="#a7caff" stroke="#fff" stroke-width="5">
          <ellipse cx="6.78" cy="6.78" rx="6.78" ry="6.78" stroke="none"/>
          <ellipse cx="6.78" cy="6.78" rx="4.28" ry="4.28" fill="none"/>
        </g>
        <path id="패스_4" data-name="패스 4" d="M2.174,0,4.349,4.663,2.174,9.327,0,4.663Z" transform="translate(22.529 23.125)" fill="#a7caff"/>
      </g>
      <path id="패스_2" data-name="패스 2" d="M223.111,130.248s-4.974,12.106-10.4,17.53-13.676,9.432-22.4,13.44-14.555,10.975-16.136,16.706c-3.773,13.676,7.279,26.981,29.834,26.835s51.527-9.241,52.582-31.832S223.111,130.248,223.111,130.248Z" transform="translate(158.043 -6.41)" fill="#a7caff" stroke="#fff" stroke-width="7"/>
      <path id="패스_1" data-name="패스 1" d="M209.082,130.248s-3.569,8.686-7.46,12.578-9.813,6.767-16.072,9.643-10.443,7.875-11.577,11.986c-2.707,9.813,5.222,19.359,21.406,19.254s36.971-6.63,37.728-22.84S209.082,130.248,209.082,130.248Z" transform="translate(169.791 -17.524)" fill="#a7caff" stroke="#fff" stroke-width="7"/>
    </g>
    <path id="패스_14" data-name="패스 14" d="M-88.52-29.81h-7.91v26a4.785,4.785,0,0,1-1,3.333A3.358,3.358,0,0,1-100.019.61a3.407,3.407,0,0,1-2.625-1.1,4.754,4.754,0,0,1-1.013-3.32v-26h-7.91a4.006,4.006,0,0,1-2.759-.818,2.775,2.775,0,0,1-.9-2.161,2.743,2.743,0,0,1,.94-2.2,4.071,4.071,0,0,1,2.722-.806H-88.52a4.055,4.055,0,0,1,2.8.83,2.8,2.8,0,0,1,.916,2.173,2.74,2.74,0,0,1-.928,2.161A4.1,4.1,0,0,1-88.52-29.81Zm13.308-2.2v10.254h15.649V-32.007a4.792,4.792,0,0,1,.989-3.3,3.331,3.331,0,0,1,2.6-1.1,3.454,3.454,0,0,1,2.649,1.086,4.707,4.707,0,0,1,1.013,3.308v28.2a4.716,4.716,0,0,1-1.025,3.32A3.445,3.445,0,0,1-55.974.61,3.3,3.3,0,0,1-58.586-.5a4.881,4.881,0,0,1-.977-3.308V-15.845H-75.212V-3.809a4.716,4.716,0,0,1-1.025,3.32A3.445,3.445,0,0,1-78.875.61,3.3,3.3,0,0,1-81.487-.5a4.882,4.882,0,0,1-.977-3.308v-28.2a4.874,4.874,0,0,1,.964-3.3,3.313,3.313,0,0,1,2.625-1.1,3.454,3.454,0,0,1,2.649,1.086A4.707,4.707,0,0,1-75.212-32.007ZM-22.94-30.2H-39.273v8.789h15.039a3.58,3.58,0,0,1,2.478.745,2.531,2.531,0,0,1,.818,1.965,2.627,2.627,0,0,1-.806,1.99,3.5,3.5,0,0,1-2.49.769H-39.273V-5.762h16.895a3.7,3.7,0,0,1,2.576.793,2.725,2.725,0,0,1,.867,2.112A2.667,2.667,0,0,1-19.8-.793,3.7,3.7,0,0,1-22.378,0h-19.7a4.65,4.65,0,0,1-3.406-1.05,4.692,4.692,0,0,1-1.038-3.394v-26.9A6.033,6.033,0,0,1-46.06-33.9a2.88,2.88,0,0,1,1.453-1.44,6.106,6.106,0,0,1,2.527-.452H-22.94a3.719,3.719,0,0,1,2.576.769,2.6,2.6,0,0,1,.842,2.014,2.628,2.628,0,0,1-.842,2.039A3.719,3.719,0,0,1-22.94-30.2ZM2.625-32.007v12.549L16.859-34.3A13.049,13.049,0,0,1,18.6-35.889a3.239,3.239,0,0,1,1.917-.513,3.519,3.519,0,0,1,2.527.916,2.963,2.963,0,0,1,.964,2.234A4.445,4.445,0,0,1,22.376-30.1l-8.813,8.35L23.719-7.2a18.192,18.192,0,0,1,1.611,2.649,5.149,5.149,0,0,1,.537,2.209,2.751,2.751,0,0,1-.94,2.075A3.586,3.586,0,0,1,22.376.61a4.3,4.3,0,0,1-2.466-.647A5.555,5.555,0,0,1,18.3-1.758q-.659-1.074-1.172-1.953L8.558-16.895,2.625-11.206v7.4A4.709,4.709,0,0,1,1.6-.476,3.464,3.464,0,0,1-1.037.61,3.543,3.543,0,0,1-2.819.122,3.42,3.42,0,0,1-4.137-1.2a4.3,4.3,0,0,1-.415-1.587q-.073-.9-.073-2.612V-32.007a4.874,4.874,0,0,1,.964-3.3,3.313,3.313,0,0,1,2.625-1.1,3.454,3.454,0,0,1,2.649,1.086A4.707,4.707,0,0,1,2.625-32.007Zm28,28.2v-28.2a4.752,4.752,0,0,1,1-3.3,3.34,3.34,0,0,1,2.588-1.1,3.454,3.454,0,0,1,2.649,1.086,4.707,4.707,0,0,1,1.013,3.308v28.2a4.754,4.754,0,0,1-1.013,3.32A3.435,3.435,0,0,1,34.219.61,3.333,3.333,0,0,1,31.644-.5,4.762,4.762,0,0,1,30.63-3.809Zm22.8-28.247,13.94,21.094V-32.251a4.674,4.674,0,0,1,.891-3.113,3.007,3.007,0,0,1,2.4-1.038,3.1,3.1,0,0,1,2.466,1.038,4.63,4.63,0,0,1,.9,3.113V-4.1Q74.041.61,70.134.61A5.173,5.173,0,0,1,68.376.33a4.462,4.462,0,0,1-1.465-.891,8.68,8.68,0,0,1-1.27-1.428q-.586-.818-1.172-1.672l-13.6-20.85V-3.54a4.475,4.475,0,0,1-.952,3.1A3.148,3.148,0,0,1,47.478.61,3.112,3.112,0,0,1,45.012-.452a4.562,4.562,0,0,1-.928-3.088V-31.152a7.817,7.817,0,0,1,.391-2.759,3.939,3.939,0,0,1,1.538-1.794,4.186,4.186,0,0,1,2.319-.7A4.008,4.008,0,0,1,50-36.084a4.028,4.028,0,0,1,1.221.854A8.821,8.821,0,0,1,52.3-33.838Q52.849-32.983,53.435-32.056Zm59.23,17.5v6.86a7.209,7.209,0,0,1-.269,2.185,3.462,3.462,0,0,1-.989,1.477,9.312,9.312,0,0,1-1.843,1.27A28.989,28.989,0,0,1,103.315-.2,25.2,25.2,0,0,1,96.772.61a21.315,21.315,0,0,1-7.52-1.27,15.816,15.816,0,0,1-5.786-3.687,16.275,16.275,0,0,1-3.674-5.859A21.9,21.9,0,0,1,78.51-17.9a22.466,22.466,0,0,1,1.245-7.642,15.685,15.685,0,0,1,3.662-5.884,16.073,16.073,0,0,1,5.884-3.7A22.562,22.562,0,0,1,97.163-36.4a19.5,19.5,0,0,1,6.4.964,14.074,14.074,0,0,1,4.517,2.429,10.831,10.831,0,0,1,2.612,3.1A6.3,6.3,0,0,1,111.567-27a3.1,3.1,0,0,1-1.013,2.332,3.4,3.4,0,0,1-2.429.964,3.272,3.272,0,0,1-1.5-.366,3.41,3.41,0,0,1-1.208-1.025,28.868,28.868,0,0,0-2.271-3.174,7.325,7.325,0,0,0-2.5-1.807,9.549,9.549,0,0,0-4.016-.732,11.087,11.087,0,0,0-4.492.867,9.281,9.281,0,0,0-3.381,2.515A11.34,11.34,0,0,0,86.6-23.389a17.771,17.771,0,0,0-.745,5.3q0,6.3,2.893,9.692A10.031,10.031,0,0,0,96.821-5a16.447,16.447,0,0,0,4.724-.659,23.926,23.926,0,0,0,4.48-1.88v-5.811H100.41a6.152,6.152,0,0,1-3.064-.61,2.211,2.211,0,0,1-1.038-2.075,2.547,2.547,0,0,1,.867-1.978,3.388,3.388,0,0,1,2.356-.781h8.228a10.5,10.5,0,0,1,2.563.269,2.892,2.892,0,0,1,1.7,1.2A4.882,4.882,0,0,1,112.666-14.551Z" transform="translate(348.278 404.161)" fill="#fff"/>
  </g>
</svg>
