<svg xmlns="http://www.w3.org/2000/svg" width="308.578" height="111.129" viewBox="0 0 308.578 111.129">
  <g id="그룹_13" data-name="그룹 13" transform="translate(-137.543 -325.164)">
    <g id="그룹_8" data-name="그룹 8" transform="translate(-185.309 234.444)">
      <g id="그룹_4" data-name="그룹 4" transform="matrix(0.899, -0.438, 0.438, 0.899, 319.692, 110.846)">
        <g id="그룹_3" data-name="그룹 3" transform="translate(8.124 6.949)">
          <g id="그룹_2" data-name="그룹 2" transform="translate(0 0)">
            <path id="패스_3" data-name="패스 3" d="M0,9.672,4.713,31.54a20.9,20.9,0,0,0,11.8,4.119c6.652,0,12.143-4.119,12.143-4.119L32.889,9.672,22.242,15.729,16.509,0,11.341,15.729Z" transform="translate(0 0)" fill="#fff" stroke="#b4846c" stroke-width="5"/>
          </g>
        </g>
        <g id="타원_10" data-name="타원 10" transform="translate(-0.021 7.251)" fill="#a7caff" stroke="#a7caff" stroke-width="5">
          <ellipse cx="5.376" cy="5.376" rx="5.376" ry="5.376" stroke="none"/>
          <ellipse cx="5.376" cy="5.376" rx="2.876" ry="2.876" fill="none"/>
        </g>
        <path id="패스_4" data-name="패스 4" d="M2.174,0,4.349,4.663,2.174,9.327,0,4.663Z" transform="translate(22.529 23.125)" fill="#a7caff"/>
        <g id="타원_13" data-name="타원 13" transform="translate(19.418 -3.294)" fill="#a7caff" stroke="#a7caff" stroke-width="5">
          <ellipse cx="5.376" cy="5.376" rx="5.376" ry="5.376" stroke="none"/>
          <ellipse cx="5.376" cy="5.376" rx="2.876" ry="2.876" fill="none"/>
        </g>
        <g id="타원_14" data-name="타원 14" transform="translate(39.529 6.514)" fill="#a7caff" stroke="#a7caff" stroke-width="5">
          <ellipse cx="5.376" cy="5.376" rx="5.376" ry="5.376" stroke="none"/>
          <ellipse cx="5.376" cy="5.376" rx="2.876" ry="2.876" fill="none"/>
        </g>
      </g>
      <path id="패스_2" data-name="패스 2" d="M223.111,130.248s-4.974,12.106-10.4,17.53-13.676,9.432-22.4,13.44-14.555,10.975-16.136,16.706c-3.773,13.676,7.279,26.981,29.834,26.835s51.527-9.241,52.582-31.832S223.111,130.248,223.111,130.248Z" transform="translate(158.043 -6.41)" fill="#fff" stroke="#b4846c" stroke-width="7"/>
      <path id="패스_1" data-name="패스 1" d="M209.082,130.248s-3.569,8.686-7.46,12.578-9.813,6.767-16.072,9.643-10.443,7.875-11.577,11.986c-2.707,9.813,5.222,19.359,21.406,19.254s36.971-6.63,37.728-22.84S209.082,130.248,209.082,130.248Z" transform="translate(169.791 -17.524)" fill="#fff" stroke="#b4846c" stroke-width="7"/>
    </g>
    <path id="패스_14" data-name="패스 14" d="M-90.316-30.253h-7.378V-6a4.463,4.463,0,0,1-.934,3.108,3.132,3.132,0,0,1-2.414,1.013A3.178,3.178,0,0,1-103.49-2.9a4.434,4.434,0,0,1-.945-3.1V-30.253h-7.378a3.736,3.736,0,0,1-2.573-.763,2.588,2.588,0,0,1-.843-2.015,2.558,2.558,0,0,1,.877-2.05,3.8,3.8,0,0,1,2.539-.751h21.5a3.782,3.782,0,0,1,2.607.774,2.607,2.607,0,0,1,.854,2.027,2.556,2.556,0,0,1-.865,2.015A3.828,3.828,0,0,1-90.316-30.253ZM-77.9-32.3v9.564h14.6V-32.3a4.469,4.469,0,0,1,.922-3.074A3.107,3.107,0,0,1-59.958-36.4a3.222,3.222,0,0,1,2.471,1.013,4.39,4.39,0,0,1,.945,3.086V-6A4.4,4.4,0,0,1-57.5-2.9a3.213,3.213,0,0,1-2.459,1.025,3.082,3.082,0,0,1-2.437-1.036A4.553,4.553,0,0,1-63.306-6V-17.227H-77.9V-6a4.4,4.4,0,0,1-.956,3.1,3.213,3.213,0,0,1-2.459,1.025,3.082,3.082,0,0,1-2.437-1.036A4.553,4.553,0,0,1-84.666-6V-32.3a4.546,4.546,0,0,1,.9-3.074A3.09,3.09,0,0,1-81.319-36.4a3.222,3.222,0,0,1,2.471,1.013A4.39,4.39,0,0,1-77.9-32.3Zm48.758,1.685H-44.38v8.2h14.028a3.339,3.339,0,0,1,2.311.695,2.361,2.361,0,0,1,.763,1.833,2.451,2.451,0,0,1-.751,1.856,3.262,3.262,0,0,1-2.323.717H-44.38v9.5h15.759a3.449,3.449,0,0,1,2.4.74,2.542,2.542,0,0,1,.808,1.97,2.488,2.488,0,0,1-.808,1.924,3.449,3.449,0,0,1-2.4.74H-47a4.337,4.337,0,0,1-3.177-.979,4.376,4.376,0,0,1-.968-3.165v-25.1a5.628,5.628,0,0,1,.433-2.38,2.687,2.687,0,0,1,1.355-1.344A5.7,5.7,0,0,1-47-35.832h17.854a3.469,3.469,0,0,1,2.4.717,2.424,2.424,0,0,1,.786,1.879,2.451,2.451,0,0,1-.786,1.9A3.469,3.469,0,0,1-29.145-30.617ZM-5.3-32.3V-20.6L7.978-34.443a12.171,12.171,0,0,1,1.628-1.48,3.022,3.022,0,0,1,1.788-.478,3.282,3.282,0,0,1,2.357.854,2.764,2.764,0,0,1,.9,2.084,4.147,4.147,0,0,1-1.526,2.938L4.9-22.738,14.377-9.165a16.968,16.968,0,0,1,1.5,2.471,4.8,4.8,0,0,1,.5,2.061A2.566,2.566,0,0,1,15.5-2.7a3.345,3.345,0,0,1-2.38.82,4.014,4.014,0,0,1-2.3-.6,5.181,5.181,0,0,1-1.5-1.605q-.615-1-1.093-1.822L.235-18.206-5.3-12.9V-6a4.392,4.392,0,0,1-.956,3.108A3.231,3.231,0,0,1-8.714-1.878a3.3,3.3,0,0,1-1.662-.455,3.19,3.19,0,0,1-1.23-1.23,4.008,4.008,0,0,1-.387-1.48q-.068-.843-.068-2.437V-32.3a4.546,4.546,0,0,1,.9-3.074A3.09,3.09,0,0,1-8.714-36.4a3.222,3.222,0,0,1,2.471,1.013A4.39,4.39,0,0,1-5.3-32.3ZM20.823-6V-32.3a4.433,4.433,0,0,1,.934-3.074A3.116,3.116,0,0,1,24.171-36.4a3.222,3.222,0,0,1,2.471,1.013,4.39,4.39,0,0,1,.945,3.086V-6a4.434,4.434,0,0,1-.945,3.1,3.2,3.2,0,0,1-2.471,1.025,3.109,3.109,0,0,1-2.4-1.036A4.442,4.442,0,0,1,20.823-6ZM42.095-32.348l13,19.676V-32.53a4.359,4.359,0,0,1,.831-2.9,2.805,2.805,0,0,1,2.243-.968,2.892,2.892,0,0,1,2.3.968,4.318,4.318,0,0,1,.843,2.9V-6.273q0,4.4-3.644,4.4a4.825,4.825,0,0,1-1.64-.262,4.162,4.162,0,0,1-1.366-.831A8.1,8.1,0,0,1,53.481-4.3q-.547-.763-1.093-1.56L39.7-25.311V-5.749a4.174,4.174,0,0,1-.888,2.892,2.936,2.936,0,0,1-2.277.979,2.9,2.9,0,0,1-2.3-.991,4.255,4.255,0,0,1-.865-2.881V-31.505a7.291,7.291,0,0,1,.364-2.573,3.674,3.674,0,0,1,1.435-1.674,3.9,3.9,0,0,1,2.163-.649,3.739,3.739,0,0,1,1.56.3,3.757,3.757,0,0,1,1.139.8,8.228,8.228,0,0,1,1,1.3Q41.548-33.213,42.095-32.348ZM97.343-16.02v6.4a6.725,6.725,0,0,1-.251,2.038A3.229,3.229,0,0,1,96.17-6.2a8.686,8.686,0,0,1-1.719,1.184,27.04,27.04,0,0,1-5.83,2.391,23.5,23.5,0,0,1-6.1.751A19.882,19.882,0,0,1,75.5-3.062a14.752,14.752,0,0,1-5.4-3.439,15.181,15.181,0,0,1-3.427-5.465,20.431,20.431,0,0,1-1.2-7.173,20.956,20.956,0,0,1,1.161-7.128,14.63,14.63,0,0,1,3.416-5.488,14.993,14.993,0,0,1,5.488-3.45,21.045,21.045,0,0,1,7.333-1.2,18.192,18.192,0,0,1,5.966.9,13.128,13.128,0,0,1,4.213,2.266A10.1,10.1,0,0,1,95.5-30.344a5.874,5.874,0,0,1,.82,2.71,2.893,2.893,0,0,1-.945,2.175,3.171,3.171,0,0,1-2.266.9,3.052,3.052,0,0,1-1.4-.342,3.18,3.18,0,0,1-1.127-.956,26.927,26.927,0,0,0-2.118-2.96A6.833,6.833,0,0,0,86.127-30.5a8.907,8.907,0,0,0-3.746-.683,10.341,10.341,0,0,0-4.19.808,8.657,8.657,0,0,0-3.154,2.346,10.578,10.578,0,0,0-2,3.769,16.576,16.576,0,0,0-.695,4.942q0,5.875,2.7,9.041a9.356,9.356,0,0,0,7.526,3.165,15.341,15.341,0,0,0,4.406-.615,22.317,22.317,0,0,0,4.179-1.753V-14.9H85.911a5.739,5.739,0,0,1-2.858-.569,2.062,2.062,0,0,1-.968-1.936,2.376,2.376,0,0,1,.808-1.845,3.16,3.16,0,0,1,2.2-.729h7.674a9.791,9.791,0,0,1,2.391.25,2.7,2.7,0,0,1,1.583,1.116A4.554,4.554,0,0,1,97.343-16.02Z" transform="translate(348.278 406.65)" fill="#a7caff" stroke="#a7caff" stroke-width="1"/>
  </g>
</svg>
