<svg xmlns="http://www.w3.org/2000/svg" width="186.733" height="216.371" viewBox="0 0 186.733 216.371">
  <g id="그룹_11" data-name="그룹 11" transform="translate(-140.582 -94.603)">
    <g id="그룹_4" data-name="그룹 4" transform="matrix(0.899, -0.438, 0.438, 0.899, 144.796, 131.256)">
      <g id="그룹_3" data-name="그룹 3" transform="translate(5.136 6.816)">
        <g id="그룹_2" data-name="그룹 2" transform="translate(0 0)">
          <path id="패스_3" data-name="패스 3" d="M0,17.053,8.31,55.611s9.069,7.263,20.8,7.263,21.41-7.263,21.41-7.263l7.471-38.558L39.216,27.733,29.107,0,20,27.733Z" transform="translate(0 0)" fill="#b4846c" stroke="#fff" stroke-width="9"/>
        </g>
      </g>
      <g id="타원_8" data-name="타원 8" transform="translate(30.534)" fill="#daebff" stroke="#fff" stroke-width="10">
        <circle cx="3.834" cy="3.834" r="3.834" stroke="none"/>
        <circle cx="3.834" cy="3.834" r="1.166" fill="none"/>
      </g>
      <g id="타원_9" data-name="타원 9" transform="translate(60.908 17.148)" fill="#daebff" stroke="#fff" stroke-width="10">
        <circle cx="3.834" cy="3.834" r="3.834" stroke="none"/>
        <circle cx="3.834" cy="3.834" r="1.166" fill="none"/>
      </g>
      <circle id="타원_10" data-name="타원 10" cx="8.358" cy="8.358" r="8.358" transform="translate(-8.106 8.47)" fill="#a7caff"/>
      <path id="패스_4" data-name="패스 4" d="M3.834,0,7.668,8.222,3.834,16.444,0,8.222Z" transform="translate(30.534 35.337)" fill="#a7caff"/>
      <circle id="타원_11" data-name="타원 11" cx="8.358" cy="8.358" r="8.358" transform="translate(25.907 -10.278)" fill="#a7caff"/>
      <circle id="타원_12" data-name="타원 12" cx="8.358" cy="8.358" r="8.358" transform="translate(59.776 7.548)" fill="#a7caff"/>
    </g>
    <path id="패스_2" data-name="패스 2" d="M261.01,130.248s-8.769,21.346-18.331,30.908-24.113,16.63-39.5,23.7-25.663,19.352-28.45,29.455c-6.652,24.113,12.833,47.571,52.6,47.315s90.851-16.294,92.711-56.125S261.01,130.248,261.01,130.248Z" transform="translate(-18.488 23.056)" fill="#a7caff" stroke="#fff" stroke-width="9"/>
    <path id="패스_1" data-name="패스 1" d="M236.274,130.248s-6.292,15.315-13.153,22.176-17.3,11.932-28.338,17-18.413,13.885-20.413,21.134c-4.773,17.3,9.208,34.133,37.742,33.949s65.185-11.691,66.52-40.27S236.274,130.248,236.274,130.248Z" transform="translate(2.224 3.461)" fill="#a7caff" stroke="#fff" stroke-width="9"/>
    <ellipse id="타원_5" data-name="타원 5" cx="5.538" cy="8.52" rx="5.538" ry="8.52" transform="translate(210.571 187.077)" fill="#fff"/>
    <path id="패스_5" data-name="패스 5" d="M13.653,3.058H9.61V16.349a2.446,2.446,0,0,1-.512,1.7,1.717,1.717,0,0,1-1.323.555,1.741,1.741,0,0,1-1.342-.562,2.43,2.43,0,0,1-.518-1.7V3.058H1.872A2.048,2.048,0,0,1,.462,2.64,1.418,1.418,0,0,1,0,1.535,1.4,1.4,0,0,1,.48.412,2.081,2.081,0,0,1,1.872,0H13.653a2.073,2.073,0,0,1,1.429.424,1.429,1.429,0,0,1,.468,1.111,1.4,1.4,0,0,1-.474,1.1A2.1,2.1,0,0,1,13.653,3.058Z" transform="matrix(0.996, -0.087, 0.087, 0.996, 219.037, 291.896)" fill="#fff" stroke="#fff" stroke-width="1"/>
    <path id="패스_6" data-name="패스 6" d="M3.707,2.246V7.488h8V2.246A2.449,2.449,0,0,1,12.212.562,1.7,1.7,0,0,1,13.541,0a1.766,1.766,0,0,1,1.354.555,2.406,2.406,0,0,1,.518,1.691V16.661a2.411,2.411,0,0,1-.524,1.7,1.761,1.761,0,0,1-1.348.562,1.689,1.689,0,0,1-1.335-.568,2.5,2.5,0,0,1-.5-1.691V10.508h-8v6.153a2.411,2.411,0,0,1-.524,1.7,1.761,1.761,0,0,1-1.348.562A1.689,1.689,0,0,1,.5,18.352,2.5,2.5,0,0,1,0,16.661V2.246A2.492,2.492,0,0,1,.493.562,1.694,1.694,0,0,1,1.835,0,1.766,1.766,0,0,1,3.189.555,2.406,2.406,0,0,1,3.707,2.246Z" transform="translate(235.995 290.171) rotate(-11)" fill="#fff" stroke="#fff" stroke-width="1"/>
    <path id="패스_7" data-name="패스 7" d="M12.056,2.858H3.707V7.351h7.688a1.83,1.83,0,0,1,1.267.381,1.294,1.294,0,0,1,.418,1,1.343,1.343,0,0,1-.412,1.017,1.787,1.787,0,0,1-1.273.393H3.707v5.2h8.636a1.89,1.89,0,0,1,1.317.406,1.393,1.393,0,0,1,.443,1.08,1.364,1.364,0,0,1-.443,1.055,1.89,1.89,0,0,1-1.317.406H2.271A2.377,2.377,0,0,1,.53,17.759,2.4,2.4,0,0,1,0,16.024V2.271A3.084,3.084,0,0,1,.237.967,1.472,1.472,0,0,1,.98.231,3.121,3.121,0,0,1,2.271,0h9.784a1.9,1.9,0,0,1,1.317.393,1.329,1.329,0,0,1,.431,1.03,1.343,1.343,0,0,1-.431,1.042A1.9,1.9,0,0,1,12.056,2.858Z" transform="translate(253.406 286.351) rotate(-16)" fill="#fff" stroke="#fff" stroke-width="1"/>
    <path id="패스_8" data-name="패스 8" d="M3.707,2.246V8.661l7.276-7.588a6.67,6.67,0,0,1,.892-.811A1.656,1.656,0,0,1,12.854,0a1.8,1.8,0,0,1,1.292.468,1.515,1.515,0,0,1,.493,1.142A2.272,2.272,0,0,1,13.8,3.22L9.3,7.488l5.192,7.438a9.3,9.3,0,0,1,.824,1.354,2.632,2.632,0,0,1,.275,1.129,1.406,1.406,0,0,1-.48,1.061,1.833,1.833,0,0,1-1.3.449,2.2,2.2,0,0,1-1.26-.331,2.839,2.839,0,0,1-.824-.88q-.337-.549-.6-1L6.739,9.972,3.707,12.879v3.781a2.407,2.407,0,0,1-.524,1.7,1.771,1.771,0,0,1-1.348.555,1.811,1.811,0,0,1-.911-.25A1.748,1.748,0,0,1,.25,18a2.2,2.2,0,0,1-.212-.811Q0,16.723,0,15.85V2.246A2.492,2.492,0,0,1,.493.562,1.694,1.694,0,0,1,1.835,0,1.766,1.766,0,0,1,3.189.555,2.406,2.406,0,0,1,3.707,2.246Z" transform="matrix(0.829, -0.559, 0.559, 0.829, 275.065, 279.22)" fill="#fff" stroke="#fff" stroke-width="1"/>
    <path id="패스_9" data-name="패스 9" d="M0,16.661V2.246A2.429,2.429,0,0,1,.512.562,1.708,1.708,0,0,1,1.835,0,1.766,1.766,0,0,1,3.189.555a2.406,2.406,0,0,1,.518,1.691V16.661a2.43,2.43,0,0,1-.518,1.7,1.756,1.756,0,0,1-1.354.562,1.7,1.7,0,0,1-1.317-.568A2.434,2.434,0,0,1,0,16.661Z" transform="translate(288.842 269.719) rotate(-43)" fill="#fff" stroke="#fff" stroke-width="1"/>
    <path id="패스_10" data-name="패스 10" d="M4.78,2.221,11.906,13V2.122A2.389,2.389,0,0,1,12.361.53,1.537,1.537,0,0,1,13.591,0a1.585,1.585,0,0,1,1.26.53,2.367,2.367,0,0,1,.462,1.591V16.511q0,2.409-2,2.409a2.644,2.644,0,0,1-.9-.144,2.281,2.281,0,0,1-.749-.456,4.437,4.437,0,0,1-.649-.73q-.3-.418-.6-.855L3.469,6.078V16.8a2.287,2.287,0,0,1-.487,1.585,1.609,1.609,0,0,1-1.248.537,1.591,1.591,0,0,1-1.26-.543A2.332,2.332,0,0,1,0,16.8V2.683a4,4,0,0,1,.2-1.41A2.013,2.013,0,0,1,.986.356,2.14,2.14,0,0,1,2.172,0a2.049,2.049,0,0,1,.855.162A2.059,2.059,0,0,1,3.65.6,4.509,4.509,0,0,1,4.2,1.31Q4.48,1.747,4.78,2.221Z" transform="matrix(0.559, -0.829, 0.829, 0.559, 292.883, 265.848)" fill="#fff" stroke="#fff" stroke-width="1"/>
    <path id="패스_11" data-name="패스 11" d="M17.772,11.572V15.2a3.882,3.882,0,0,1-.14,1.157,1.836,1.836,0,0,1-.514.782,4.844,4.844,0,0,1-.959.672,14.936,14.936,0,0,1-3.252,1.358,12.893,12.893,0,0,1-3.4.427,10.916,10.916,0,0,1-3.913-.672,8.213,8.213,0,0,1-3.011-1.952,8.642,8.642,0,0,1-1.912-3.1A11.786,11.786,0,0,1,0,9.8,12.09,12.09,0,0,1,.648,5.754,8.116,8.116,0,0,1,5.615.679,11.554,11.554,0,0,1,9.705,0a9.985,9.985,0,0,1,3.328.511A7.285,7.285,0,0,1,15.384,1.8a5.713,5.713,0,0,1,1.359,1.642A3.379,3.379,0,0,1,17.2,4.978a1.656,1.656,0,0,1-.527,1.235,1.752,1.752,0,0,1-1.264.511,1.678,1.678,0,0,1-.781-.194A1.783,1.783,0,0,1,14,5.986a15.285,15.285,0,0,0-1.181-1.681,3.815,3.815,0,0,0-1.3-.957,4.893,4.893,0,0,0-2.09-.388,5.681,5.681,0,0,0-2.337.459A4.837,4.837,0,0,0,5.329,4.752a6.041,6.041,0,0,0-1.118,2.14A9.567,9.567,0,0,0,3.824,9.7,7.785,7.785,0,0,0,5.329,14.83a5.177,5.177,0,0,0,4.2,1.8,8.418,8.418,0,0,0,2.458-.349,12.331,12.331,0,0,0,2.331-1V12.205H11.395A3.154,3.154,0,0,1,9.8,11.882a1.177,1.177,0,0,1-.54-1.1,1.36,1.36,0,0,1,.451-1.047,1.744,1.744,0,0,1,1.226-.414h4.281a5.37,5.37,0,0,1,1.334.142,1.505,1.505,0,0,1,.883.634A2.622,2.622,0,0,1,17.772,11.572Z" transform="translate(301.832 252.679) rotate(-68)" fill="#fff" stroke="#fff" stroke-width="1"/>
    <g id="그룹_5" data-name="그룹 5" transform="translate(238.26 188.7)">
      <path id="패스_12" data-name="패스 12" d="M6.816,0,0,6.979" fill="#fff" stroke="#fff" stroke-linecap="round" stroke-width="5"/>
      <line id="선_2" data-name="선 2" x1="6.816" y1="6.816" transform="translate(0 6.979)" fill="none" stroke="#fff" stroke-linecap="round" stroke-width="5"/>
    </g>
  </g>
</svg>
